#N canvas 384 161 581 562 10;
#X obj 99 32 t b b;
#X msg 126 111 0;
#X obj 14 308 *~;
#X obj 14 362 throw~;
#X obj 99 241 vline~;
#X msg 192 291 \$1 20;
#X obj 192 314 line~;
#X obj 14 331 *~;
#X obj 99 10 inlet bang;
#X obj 192 10 r charVol;
#X obj 99 267 *~;
#X floatatom 192 267 5 0 0 0 - - -;
#X obj 14 280 osc~ 5000;
#X obj 277 128 osc~ 500;
#X obj 277 160 *~;
#X floatatom 388 98 5 0 0 0 - - -;
#X msg 388 121 \$1 20;
#X obj 388 143 line~;
#X floatatom 277 98 5 0 0 0 - - -;
#X obj 99 291 *~;
#X msg 99 215 0 \, 1 1 \, 0 20 1;
#X floatatom 13 98 5 0 0 0 - - -;
#X obj 13 122 sig~;
#X obj 13 177 +~;
#X obj 13 10 r fCarrier;
#X obj 277 10 r fMod;
#X obj 388 10 r modIndex;
#X connect 0 0 20 0;
#X connect 0 1 1 0;
#X connect 1 0 12 1;
#X connect 1 0 13 1;
#X connect 2 0 7 0;
#X connect 4 0 10 1;
#X connect 4 0 10 0;
#X connect 5 0 6 0;
#X connect 6 0 7 1;
#X connect 7 0 3 0;
#X connect 8 0 0 0;
#X connect 9 0 11 0;
#X connect 10 0 19 1;
#X connect 10 0 19 0;
#X connect 11 0 5 0;
#X connect 12 0 2 0;
#X connect 13 0 14 0;
#X connect 14 0 23 1;
#X connect 15 0 16 0;
#X connect 16 0 17 0;
#X connect 17 0 14 1;
#X connect 18 0 13 0;
#X connect 19 0 2 1;
#X connect 20 0 4 0;
#X connect 21 0 22 0;
#X connect 22 0 23 0;
#X connect 23 0 12 0;
#X connect 24 0 21 0;
#X connect 25 0 18 0;
#X connect 26 0 15 0;
